<?xml version="1.0" encoding="UTF-8"?>
<svg xmlns="http://www.w3.org/2000/svg" xmlns:xlink="http://www.w3.org/1999/xlink" width="16pt" height="15pt" viewBox="0 0 16 15" version="1.1">
<g id="surface1">
<path style=" stroke:none;fill-rule:nonzero;fill:rgb(0%,0%,0%);fill-opacity:1;" d="M 3.582031 13.125 L 0.265625 13.125 L 0.265625 4.363281 L 3.582031 4.363281 Z M 1.921875 3.167969 C 0.859375 3.167969 0 2.445312 0 1.578125 C 0 0.707031 0.859375 0 1.921875 0 C 2.980469 0 3.84375 0.707031 3.84375 1.574219 C 3.84375 2.445312 2.980469 3.167969 1.921875 3.167969 Z M 15.996094 13.125 L 12.6875 13.125 L 12.6875 8.859375 C 12.6875 7.84375 12.660156 6.539062 10.960938 6.539062 C 9.238281 6.539062 8.972656 7.644531 8.972656 8.785156 L 8.972656 13.125 L 5.660156 13.125 L 5.660156 4.363281 L 8.839844 4.363281 L 8.839844 5.558594 L 8.886719 5.558594 C 9.328125 4.867188 10.410156 4.140625 12.027344 4.140625 C 15.382812 4.140625 16 5.957031 16 8.3125 L 16 13.125 Z M 15.996094 13.125 "/>
</g>
</svg>
